<svg xmlns="http://www.w3.org/2000/svg" viewBox="-10 -45 300 300" width="100" height="100" id="game_tonychenn_cn">
  <style type="text/css">.st0{fill:#39B54A;stroke:#42210B;stroke-width:2;stroke-miterlimit:10;}.st1{fill:#39B54A;stroke:#603813;stroke-width:2;stroke-miterlimit:10;}.st2{fill:#BB7F52;stroke:#42210B;stroke-width:2;stroke-miterlimit:10;}.st3{fill:#BB7F52;}.st4{fill:#FFFFFF;stroke:#603813;stroke-width:2;stroke-miterlimit:10;}.st5{fill:#42210B;stroke:#42210B;stroke-width:2;stroke-miterlimit:10;}.st6{fill:#007BAC;stroke:#42210B;stroke-width:2;stroke-miterlimit:10;}.st7{opacity:0.33;}.st8{fill:#FFE6F0;}</style>
  <style type='text/css'>#game_tonychenn_cn{width:50px;position:absolute;top:0;right:0;bottom:0;left:0;margin:0 auto}@keyframes animation-groot-show{0%{opacity:0;transform:translate3d(0,-100px,0)}100%{opacity:1;transform:translate3d(0,0px,0)}}#eyeLeft{animation:1.5s linear animation-eye infinite alternate}#eyeRight{animation:1.5s linear animation-eye infinite alternate}@keyframes animation-eye{0%{transform:translate3d(0,-2px,0)}100%{transform:translate3d(0,1px,0)}}#mouth{animation:1.5s animation-mouth linear infinite alternate}@keyframes animation-mouth{0%{transform:translate3d(0,2px,0)}100%{transform:translate3d(0,5px,0)}}#head{animation:1.5s linear infinite alternate animation-head}@keyframes animation-head{0%{transform:translate3d(0,-1px,0)}100%{transform:translate3d(0,1px,0)}}#armLeft{transform-origin:45% 50%;animation:1.3s linear infinite alternate animation-armLeft}@keyframes animation-armLeft{0%{transform:rotate(-10deg)}100%{transform:rotate(5deg)}}#armRight{transform-origin:48% 48%;animation:1.3s linear infinite alternate animation-armRight}@keyframes animation-armRight{0%{transform:rotate(-8deg)}100%{transform:rotate(3deg)}}#leaf4{animation:1.5s linear infinite alternate animation-left-hand}@keyframes animation-left-hand{0%{transform:translatex(0) translatey(0)}100%{transform:translatex(-1px) translatey(2px)}}#leaf1{animation:1.5s infinite alternate animation-left}#leaf2{animation:1.5s infinite alternate animation-left;animation-delay:1s}#leaf3{animation:1.5s infinite alternate animation-left;animation-delay:.5s}@keyframes animation-left{0%{transform:translatey(0)}100%{transform:translatey(3px)}}#leaf5{animation:1.5s linear infinite alternate animation-leaf-body-right}@keyframes animation-leaf-body-right{0%{transform:translate3d(0,0,0)}100%{transform:translate3d(-3px,0,0)}}#leaf6{animation:1.5s linear infinite alternate animation-leaf-body-left}#leaf7{animation:1.5s linear infinite alternate animation-leaf-body-left;animation-delay:1s}@keyframes animation-leaf-body-left{0%{transform:translate3d(0,0,0)}100%{transform:translate3d(4px,0,0)}}</style>
  <g id="groot">
      <g id="body"><g id="leaf7"><path class="st0" d="M133.4,190.1l-6,1.7c0,0-9.6-10.6-18.6,4.7c0,0,15.6,7.8,18.6-4.7"></path><path class="st0" d="M127.4,191.8"></path><line class="st0" x1="114.1" y1="195" x2="122.8" y2="192.9"></line></g><g id="leaf6"><path class="st0" d="M134.4,169.7l-5.1,1.8c0,0-7.2-7.4-12.9,5.4c0,0,10.3,3.6,12.9-5.4"></path><path class="st0" d="M129.3,171.5"></path><line class="st0" x1="120.3" y1="175.1" x2="125.5" y2="172.4"></line></g><g id="leaf5"><path class="st1" d="M158,168.5l1.2-0.2c0,0,2.8-11.6,16.9-4.1c0,0-7.2,10.1-16.9,4.1"></path><path class="st1" d="M159.2,168.3"></path><path class="st1" d="M159.2,168.3"></path><line class="st1" x1="162.9" y1="166.9" x2="171" y2="165.2"></line></g><path class="st2" d="M126.4,130.4c0,0,14.7,31.6,4.2,78.6H169c0,0-17.9-44.2-13.9-77.4L126.4,130.4z"></path></g>
      <g id="armRight"><g id="leaf4"><path class="st0" d="M188.5,135.7l2.7-2.3c0,0-1.4-7.5,8.9-5.9c0,0-1.5,7.3-8.9,5.9"></path><path class="st0" d="M191.2,133.4"></path><line class="st0" x1="193.8" y1="131" x2="196.3" y2="130"></line></g><path class="st2" d="M154.6,141.3c0,0,0.1,8.3,1.3,12.9l3.7-0.3c9.4-0.8,13,0.1,26.5-8.7l1.3-0.8c2.8-1.7,3.5-5.2,1.7-7.9v0c-1.4-2.1-4-3-6.4-2.2l-5.8,3c-3.2,1.7-6.8,2.8-10.4,3.2L154.6,141.3z"></path><polygon class="st3" points="149.2,142.4 155.9,142.2 158.4,152.9 149,154"></polygon></g>
      <g id="armLeft"><path class="st2" d="M129.8,140.4c0,0,1.9,8.3,2.7,12.7l-3.2-0.3c-9.4-0.8-13,0.1-26.5-8.7l-1.3-0.8c-2.8-1.7-3.5-5.2-1.7-7.9v0c1.4-2.1,4-3,6.4-2.2l5.8,3c3.2,1.7,6.8,2.8,10.4,3.2L129.8,140.4z"></path><polygon class="st3" points="129,141.3 131.8,141.5 135.8,152.5 131.2,152"></polygon><g id="leaf9"><path class="st0" d="M114.4,150.7c-1.9,8.1-8.9,8.9-8.9,8.9c-3.3-7.7,3.6-11.4,3.6-11.4L114.4,150.7z"></path><line class="st0" x1="107.9" y1="155.7" x2="110" y2="152.6"></line></g><g id="leaf8"><path class="st0" d="M113.5,150.3c0,0-4,6.8,3,10.4c0,0,2.9-2.3,1.7-9.1L113.5,150.3z"></path><line class="st0" x1="115.5" y1="152.4" x2="115.6" y2="156.7"></line></g></g>
      <g id="head"><g id="leaf1"><path class="st0" d="M110.5,51.2l-3.3-4.1c0,0-9.9,1.9-7-12.3c0,0,10.6,1.3,7,12.3"></path><path class="st0" d="M107.3,47.1"></path><line class="st0" x1="103" y1="39.8" x2="104.3" y2="43.2"></line></g><g id="leaf2"><path class="st0" d="M177.4,52.6l3.1-3.7c0,0-3.9-9.3,10.7-9.4c0,0,0.9,10.7-10.7,9.4"></path><path class="st0" d="M180.5,48.9"></path><line class="st0" x1="186.8" y1="43.3" x2="183.7" y2="45.3"></line></g><g id="leaf3"><path class="st0" d="M166.6,48.6l2.8-6.8c0,0-10.2-8.8,7.6-18.4c0,0,7.1,17.7-7.6,18.4"></path><path class="st0" d="M169.3,41.8"></path><line class="st0" x1="170.8" y1="37.8" x2="175" y2="29"></line></g><path class="st2" d="M105.1,56.1c0-1,0.5-1.9,1.4-2.3l6.1-3.5c1.5-0.6,3.1,0.2,3.6,1.8l1.9,10.7l8.2-23c0.4-1,1.4-1.7,2.5-1.7l14.2-0.4c1.3,0,2.4,0.8,2.7,2.1l5.9,24.8l4.1-15.5c0.4-1.2,1.6-1.9,2.9-1.8l10.1,1.3c1,0.1,1.9,0.8,2.2,1.8l1.5,7.2l3-4.2c0.4-0.5,0.9-0.7,1.5-0.9c1.3-0.3,2.5,0.2,3,1.2l0.8,1.2c0.5,0.7,0.7,1.5,0.7,2.3c0,0.1,0,0.2,0,0.2l-6.4,50.4c-1.4,10.6-8.6,19.7-18.7,23c-4.7,1.5-10.5,2.4-17.7,2.1c-6.5-0.3-11.8-1.5-16-3.1c-10.7-4.1-17.5-14.6-17.5-26.1L105.1,56.1z"></path><g id="mouth"><path class="st4" d="M134.1,108.5H147c0.5,0,0.9,0.6,0.7,1.1c-1,2.1-3.6,6.8-7.2,6.7c-3.6-0.1-6.1-4.6-7-6.7C133.2,109.1,133.6,108.5,134.1,108.5z"></path></g><g id="eyeRight"><circle class="st5" cx="160.4" cy="108.2" r="5.9"></circle></g><g id="eyeLeft"> <circle class="st5" cx="121.4" cy="105.2" r="5.9"></circle></g></g>
  </g>
</svg>